Coordinates
version=1
nRows=6
nColumns=63
inDegrees=yes

Units are S.I. units (second, meters, Newtons, ...)
If the header above contains a line with 'inDegrees', this indicates whether rotational values are in degrees (yes) or radians (no).

endheader
time	pelvis_tilt	pelvis_list	pelvis_rotation	pelvis_tx	pelvis_ty	pelvis_tz	hip_flexion_r	hip_adduction_r	hip_rotation_r	knee_angle_r	knee_angle_r_beta	ankle_angle_r	subtalar_angle_r	mtp_angle_r	hip_flexion_l	hip_adduction_l	hip_rotation_l	knee_angle_l	knee_angle_l_beta	ankle_angle_l	subtalar_angle_l	mtp_angle_l	L5_S1_Flex_Ext	L5_S1_Lat_Bending	L5_S1_axial_rotation	L4_L5_Flex_Ext	L4_L5_Lat_Bending	L4_L5_axial_rotation	L3_L4_Flex_Ext	L3_L4_Lat_Bending	L3_L4_axial_rotation	L2_L3_Flex_Ext	L2_L3_Lat_Bending	L2_L3_axial_rotation	L1_L2_Flex_Ext	L1_L2_Lat_Bending	L1_L2_axial_rotation	L1_T12_Flex_Ext	L1_T12_Lat_Bending	L1_T12_axial_rotation	Abs_r3	Abs_r2	Abs_r1	Abs_t1	Abs_t2	neck_flexion	neck_bending	neck_rotation	arm_flex_r	arm_add_r	arm_rot_r	elbow_flex_r	pro_sup_r	wrist_flex_r	wrist_dev_r	arm_flex_l	arm_add_l	arm_rot_l	elbow_flex_l	pro_sup_l	wrist_flex_l	wrist_dev_l
6.837209	-4.225553	-5.532106	91.572320	0.283001	0.401654	0.878473	2.732900	-2.890220	1.532374	4.004137	0.069885	21.463397	-7.399124	0.000000	2.060340	4.391265	3.359392	0.717984	0.012531	21.904019	0.359593	0.000000	-0.251346	-0.515321	0.373263	-0.466775	-0.685376	0.396592	-0.412936	-1.252950	0.396592	-0.287263	-1.252950	0.326605	-0.233400	-1.050842	0.303276	-0.143619	-0.798231	0.279947	-1.795340	-5.829409	2.075975	0.000000	0.000000	21.744809	7.033834	-8.256676	-2.013664	-2.887479	160.502171	2.166130	33.284932	-43.285884	-9.696877	-11.769409	-11.290839	113.020108	14.564208	6.873792	-7.955033	-8.083620
6.860465	-4.330937	-5.396495	91.636936	0.283781	0.401585	0.878014	2.572697	-2.931913	1.715489	4.098422	0.071531	21.456844	-7.907232	0.000000	1.872998	4.448801	3.381342	0.708998	0.012374	21.933779	0.397377	0.000000	-0.261094	-0.540308	0.425280	-0.484878	-0.718610	0.451860	-0.428952	-1.313705	0.451860	-0.298405	-1.313705	0.372120	-0.242452	-1.101796	0.345540	-0.149189	-0.836937	0.318960	-1.864970	-6.112071	2.365278	0.000000	0.000000	21.968166	7.054421	-8.702907	-1.618656	-2.116997	169.156864	0.304892	30.291738	-44.708027	-9.186450	-11.316981	-10.932424	119.690876	13.444906	6.699305	-8.741900	-6.761107
6.883721	-4.431883	-5.267497	91.720242	0.284443	0.401505	0.877630	2.442645	-2.980193	1.819665	4.237345	0.073956	21.493652	-8.321701	0.000000	1.701739	4.508519	3.400427	0.703945	0.012286	21.963854	0.473906	0.000000	-0.269207	-0.563711	0.473491	-0.499943	-0.749736	0.503084	-0.442279	-1.370607	0.503084	-0.307676	-1.370607	0.414304	-0.249985	-1.149520	0.384711	-0.153825	-0.873188	0.355118	-1.922916	-6.376812	2.633413	0.000000	0.000000	22.161694	6.994611	-9.124072	-1.436042	-1.487276	175.315774	-1.026064	28.178777	-45.169884	-8.695393	-10.912759	-10.582278	126.201693	12.351451	6.836365	-9.531437	-5.435889
6.906977	-4.512506	-5.132314	91.790722	0.284972	0.401433	0.877356	2.322664	-3.015151	1.954042	4.383773	0.076511	21.529213	-8.740695	0.000000	1.532765	4.553102	3.307006	0.700151	0.012220	22.019037	0.704965	0.000000	-0.277933	-0.581600	0.516618	-0.516150	-0.773528	0.548906	-0.456617	-1.414103	0.548906	-0.317650	-1.414103	0.452040	-0.258089	-1.185999	0.419752	-0.158811	-0.900899	0.387463	-1.985251	-6.579178	2.873272	0.000000	0.000000	22.335200	6.895663	-9.366883	-1.465811	-1.038488	178.533574	-1.754611	27.114335	-44.552327	-8.293953	-10.529070	-10.261489	132.124032	11.356566	6.703082	-10.163960	-4.307166
6.930233	-4.564154	-5.004720	91.847207	0.285336	0.401329	0.877223	2.238215	-3.034996	2.025777	4.552757	0.079461	21.614341	-9.004894	0.000000	1.383201	4.578702	3.146717	0.701570	0.012245	22.073911	0.980397	0.000000	-0.285846	-0.592729	0.548693	-0.530845	-0.788330	0.582987	-0.469617	-1.441161	0.582987	-0.326693	-1.441161	0.480107	-0.265437	-1.208693	0.445813	-0.163332	-0.918137	0.411520	-2.041770	-6.705069	3.051668	0.000000	0.000000	22.495710	6.746099	-9.449090	-1.708625	-0.805254	178.409781	-1.787385	27.529361	-42.951100	-7.790237	-10.273351	-9.991898	136.523345	10.553258	6.687382	-10.626541	-3.413257
6.953488	-4.582166	-4.884137	91.849489	0.285568	0.401183	0.877248	2.194744	-3.029156	2.126357	4.740043	0.082729	21.709322	-9.198952	0.000000	1.250532	4.577567	2.815563	0.709888	0.012390	22.149152	1.391472	0.000000	-0.293781	-0.595998	0.576543	-0.545581	-0.792678	0.612577	-0.482653	-1.449111	0.612577	-0.335762	-1.449111	0.504475	-0.272805	-1.215360	0.468441	-0.167866	-0.923202	0.432407	-2.098448	-6.742054	3.206559	0.000000	0.000000	22.658809	6.569654	-9.347459	-2.149167	-0.841038	174.673773	-1.045754	30.556885	-40.962974	-7.215045	-10.120345	-9.768654	139.394023	9.944244	6.527129	-10.830392	-2.848805
